<svg xmlns="http://www.w3.org/2000/svg" fill="none" viewBox="-1 -1 48 48" id="Cart-Outline--Streamline-Ionic-Outline" height="48" width="48">
  <desc>
    Cart Outline Streamline Icon: https://streamlinehq.com
  </desc>
  <path stroke="#000000" stroke-linecap="round" stroke-linejoin="round" d="M15.548383333333334 41.441208333333336c0.9262291666666668 0 1.6768916666666667 -0.7507583333333333 1.6768916666666667 -1.6769875s-0.7506625 -1.6769875 -1.6768916666666667 -1.6769875 -1.6769875 0.7508541666666667 -1.6769875 1.6769875 0.7507583333333333 1.6769875 1.6769875 1.6769875Z" stroke-width="2"></path>
  <path stroke="#000000" stroke-linecap="round" stroke-linejoin="round" d="M39.0180625 41.441208333333336c0.9261333333333334 0 1.6769875 -0.7507583333333333 1.6769875 -1.6769875s-0.7508541666666667 -1.6769875 -1.6769875 -1.6769875 -1.6768916666666667 0.7508541666666667 -1.6768916666666667 1.6769875 0.7506625 1.6769875 1.6768916666666667 1.6769875Z" stroke-width="2"></path>
  <path stroke="#000000" stroke-linecap="round" stroke-linejoin="round" d="M2.1364125 4.558791666666666h6.705745833333333l5.0292375 28.499299999999998h26.8228875" stroke-width="2"></path>
  <path stroke="#000000" stroke-linecap="round" stroke-linejoin="round" d="M13.871683333333333 26.352920833333332h26.135570833333333c0.193775 0 0.3818 -0.0669875 0.5317791666666667 -0.18975000000000003 0.14988333333333334 -0.12295416666666667 0.2527125 -0.2939208333333333 0.29066250000000005 -0.4840541666666667l3.0176000000000003 -15.087808333333333c0.024341666666666668 -0.12161250000000001 0.021370833333333335 -0.2471541666666667 -0.008720833333333334 -0.3676166666666667 -0.030091666666666666 -0.12036666666666666 -0.08644166666666667 -0.2325875 -0.16512083333333336 -0.3286125 -0.07867916666666668 -0.0957375 -0.17767500000000003 -0.173075 -0.28989583333333335 -0.22616666666666665 -0.11202916666666668 -0.05299583333333334 -0.23469583333333335 -0.0805 -0.3587041666666667 -0.08040416666666667H10.518762500000001" stroke-width="2"></path>
</svg>