<svg viewBox="-1 -1 42 42" fill="none" xmlns="http://www.w3.org/2000/svg" id="Profile-Circle--Streamline-Iconoir" height="42" width="42">
  <desc>
    Profile Circle Streamline Icon: https://streamlinehq.com
  </desc>
  <path d="M20 1.7675C9.9305 1.7675 1.7675 9.9305 1.7675 20c0 10.0695 8.163 18.2325 18.2325 18.2325 10.0695 0 18.2325 -8.163 18.2325 -18.2325 0 -10.0695 -8.163 -18.2325 -18.2325 -18.2325Z" stroke="#000000" stroke-linecap="round" stroke-linejoin="round" stroke-width="2"></path>
  <path d="M5.908 31.569833333333335S9.972166666666666 26.381333333333334 20 26.381333333333334s14.092166666666666 5.1885 14.092166666666666 5.1885" stroke="#000000" stroke-linecap="round" stroke-linejoin="round" stroke-width="2"></path>
  <path d="M20 20c3.021 0 5.469833333333333 -2.4488333333333334 5.469833333333333 -5.469833333333333 0 -3.0208333333333335 -2.4488333333333334 -5.469666666666667 -5.469833333333333 -5.469666666666667S14.530166666666666 11.509333333333334 14.530166666666666 14.530166666666666C14.530166666666666 17.551166666666667 16.979000000000003 20 20 20Z" stroke="#000000" stroke-linecap="round" stroke-linejoin="round" stroke-width="2"></path>
</svg>